<?xml version="1.0" encoding="UTF-8" standalone="no"?>
<!-- Created with Inkscape (http://www.inkscape.org/) -->

<svg
   width="1122.5197"
   height="200"
   viewBox="0 0 297 52.916665"
   version="1.1"
   id="svg5"
   inkscape:version="1.1 (c68e22c387, 2021-05-23)"
   sodipodi:docname="logo.svg"
   xmlns:inkscape="http://www.inkscape.org/namespaces/inkscape"
   xmlns:sodipodi="http://sodipodi.sourceforge.net/DTD/sodipodi-0.dtd"
   xmlns="http://www.w3.org/2000/svg"
   xmlns:svg="http://www.w3.org/2000/svg">
  <sodipodi:namedview
     id="namedview7"
     pagecolor="#ffffff"
     bordercolor="#666666"
     borderopacity="1.0"
     inkscape:pageshadow="2"
     inkscape:pageopacity="0.0"
     inkscape:pagecheckerboard="0"
     inkscape:document-units="mm"
     showgrid="false"
     units="px"
     height="230px"
     inkscape:zoom="1.0752874"
     inkscape:cx="561.2453"
     inkscape:cy="125.08284"
     inkscape:window-width="1920"
     inkscape:window-height="991"
     inkscape:window-x="-9"
     inkscape:window-y="-9"
     inkscape:window-maximized="1"
     inkscape:current-layer="layer1" />
  <defs
     id="defs2" />
  <g
     inkscape:label="Camada 1"
     inkscape:groupmode="layer"
     id="layer1">
    <path
       d="m 176.20476,7.0922639 c -1.17018,0.3981158 -2.69537,1.1076139 -4.14876,1.9300053 -4.21106,2.3826658 -6.34674,3.5115778 -7.48091,3.9542748 -3.26064,1.272899 -4.38081,1.666432 -5.77413,2.028411 -2.54802,0.662041 -4.58059,1.07553 -5.80436,1.180861 -1.04981,0.09034 -1.26587,0.05261 -2.24421,-0.391145 -1.21476,-0.551022 -3.28064,-2.075115 -5.74598,-4.239056 -2.18143,-1.9147945 -3.05473,-2.4577261 -4.37315,-2.7189996 -1.42834,-0.283042 -2.9952,-0.2836614 -3.40652,-0.00109 -0.18006,0.1236515 -0.66083,0.2680086 -1.06834,0.3208886 -0.66492,0.08636 -1.16747,0.4341793 -1.16747,0.8080218 0,0.070593 0.24114,0.4030382 0.5358,0.7386512 l 0.53575,0.610253 -0.3698,0.245548 c -0.53602,0.355848 -0.47052,0.940502 0.15517,1.386073 0.28875,0.205609 2.36109,1.297852 4.60514,2.427204 5.18773,2.610838 6.17259,3.189671 6.05829,3.560862 -0.0478,0.15516 0.0309,0.509898 0.17488,0.788262 0.2327,0.449942 0.23364,0.506152 0.008,0.506152 -0.37954,0 -0.30612,0.341469 0.18326,0.85227 0.38345,0.400283 0.39578,0.444914 0.10163,0.368016 -0.61512,-0.160855 -0.54703,0.238323 0.1325,0.776552 0.36973,0.292856 0.6452,0.559473 0.61214,0.592548 -0.0331,0.03305 -0.3136,-0.01189 -0.62331,-0.101412 -0.78668,-0.225637 -0.95031,0.01189 -0.51617,0.746888 0.19498,0.33052 0.35452,0.628523 0.35452,0.662264 0,0.03365 -0.42936,0.257511 -0.95421,0.497354 -0.52479,0.239798 -1.17824,0.648533 -1.45208,0.90835 -0.28449,0.269899 -0.92461,0.595545 -1.49355,0.759788 -2.29067,0.661361 -2.7034,0.825604 -3.68865,1.468002 -1.50267,0.979718 -1.59545,1.495048 -0.24245,1.346855 2.72772,-0.298883 4.37154,-0.403541 6.41383,-0.408462 2.01338,-0.0048 2.44253,0.04315 3.27755,0.36697 0.52838,0.204891 0.96072,0.415096 0.96072,0.46711 0,0.05207 -0.26535,0.221095 -0.58968,0.375756 -0.66561,0.317406 -0.63498,0.53956 0.0938,0.68024 0.27275,0.05266 0.73693,0.142665 1.03144,0.200184 l 0.53541,0.104382 -0.5409,0.45156 c -0.46853,0.39114 -0.50746,0.479319 -0.29107,0.658935 0.15715,0.130432 0.60555,0.18581 1.20862,0.149312 0.7674,-0.04636 0.95875,-0.0084 0.95875,0.190897 0,0.148181 -0.18471,0.270161 -0.45637,0.301416 -0.26121,0.03008 -0.45636,0.15428 -0.45636,0.290408 0,0.316193 1.09992,0.308894 1.6595,-0.0107 0.44299,-0.253231 1.16447,-0.330794 1.15741,-0.124535 -0.005,0.121729 -0.78633,0.517327 -1.69674,0.858143 -0.76443,0.286151 -0.52286,0.510943 0.54913,0.510943 0.62806,0 0.96699,0.0623 0.90294,0.165956 -0.0565,0.09119 -0.28047,0.165955 -0.49787,0.165955 -0.45481,0 -0.6962,0.282894 -0.45077,0.528325 0.1931,0.193122 2.38726,0.680514 3.06452,0.680799 0.30943,9.5e-5 0.45551,0.08608 0.45381,0.266796 -0.005,0.503109 -0.27101,0.71253 -0.83224,0.654834 -0.78153,-0.08037 -0.78883,0.26248 -0.0107,0.519206 0.59588,0.19664 0.72133,0.183039 1.35317,-0.146208 0.38306,-0.199637 0.92522,-0.591823 1.20492,-0.871459 0.48196,-0.481983 0.49569,-0.531261 0.26324,-0.945918 -0.32271,-0.575797 -1.0076,-0.888555 -1.97785,-0.903166 -0.67095,-0.0107 -0.75426,-0.04601 -0.55906,-0.241283 0.12617,-0.126163 0.22942,-0.287149 0.22942,-0.357745 0,-0.217113 -0.59178,-0.677672 -0.87074,-0.677672 -0.55268,0 -0.73002,-0.174694 -0.66016,-0.65047 0.054,-0.367922 0.13883,-0.453605 0.38517,-0.389155 0.24627,0.06444 0.31597,-0.006 0.31597,-0.318417 0,-0.481198 -0.2835,-0.79933 -0.71232,-0.79933 -0.17269,0 -0.50388,-0.149347 -0.73594,-0.331899 -0.31569,-0.24832 -0.35302,-0.331899 -0.1484,-0.331899 0.15046,0 0.41853,0.09048 0.59565,0.201135 0.47871,0.29899 0.58271,0.05279 0.26265,-0.621711 -0.28561,-0.601846 -0.25287,-1.072974 0.0746,-1.072974 0.097,0 0.21751,0.107118 0.26773,0.238073 0.0503,0.130871 0.48646,0.510195 0.96937,0.842806 1.11143,0.765424 1.80743,0.76465 1.88035,-0.0012 0.1008,-1.060478 0.28746,-1.202966 1.74408,-1.331923 1.05883,-0.09369 1.37413,-0.06991 1.51529,0.114965 0.28124,0.368301 1.1995,0.967984 1.48217,0.967984 0.14133,0 0.4483,-0.08715 0.68206,-0.193669 0.42003,-0.191385 0.43237,-0.289183 0.13632,-1.078121 -0.0456,-0.121587 0.28599,-0.262707 0.89397,-0.380703 2.77024,-0.537443 5.69551,-1.750371 8.11252,-3.363642 1.31869,-0.880209 3.21386,-2.71612 3.50888,-3.399238 0.2717,-0.629272 0.26346,-1.464292 -0.0201,-2.012365 -0.35044,-0.677692 -2.41045,-1.64192 -4.12135,-1.929133 -0.46212,-0.07767 -0.62231,-0.185034 -0.62231,-0.417304 0,-0.197592 0.13692,-0.332399 0.37168,-0.365869 0.20444,-0.02919 0.39661,-0.183709 0.42705,-0.343468 0.0485,-0.254391 -0.09,-0.290396 -1.11846,-0.290396 -0.6456,0 -1.17382,-0.06336 -1.17382,-0.140747 0,-0.135147 0.72276,-0.494811 1.71449,-0.853208 0.88905,-0.321272 0.41892,-0.583372 -1.02465,-0.571138 -0.7445,0.006 -1.35365,-0.01177 -1.35365,-0.03876 0,-0.02756 0.38069,-0.243013 0.84602,-0.47882 0.78517,-0.397895 0.86737,-0.409288 1.14386,-0.159097 0.2692,0.243676 0.35556,0.245548 0.8965,0.01945 0.32927,-0.137505 0.59859,-0.363261 0.59859,-0.501606 0,-0.300212 0.60145,-0.664312 0.73648,-0.445866 0.053,0.08577 0.42799,0.04937 0.87419,-0.08489 0.42969,-0.1294 0.85917,-0.207215 0.95438,-0.173083 0.0952,0.03405 -0.14428,0.159023 -0.53215,0.277575 -0.51473,0.157312 -0.70529,0.302923 -0.70529,0.53895 0,0.213023 0.0813,0.292137 0.23853,0.231828 0.13116,-0.05026 0.53878,-0.172359 0.90575,-0.271148 0.76875,-0.207009 1.00494,-0.474016 0.65047,-0.735172 -0.34926,-0.257324 -0.18228,-0.597151 0.29346,-0.597151 0.24582,0 0.40106,0.09624 0.40106,0.248938 0,0.138242 0.14753,0.248924 0.3319,0.248924 0.20848,0 0.33189,0.110685 0.33189,0.297603 0,0.192507 0.1904,0.353636 0.53935,0.456359 0.42235,0.124241 0.55105,0.261275 0.59338,0.631167 0.0462,0.402375 0.10759,0.455049 0.41488,0.354919 0.51123,-0.166568 2.00419,-0.22154 2.10332,-0.07752 0.14443,0.209972 1.16165,-0.02712 1.16165,-0.270781 0,-0.126598 -0.11437,-0.230118 -0.25413,-0.230118 -0.13971,0 -0.29876,-0.116283 -0.3533,-0.258443 -0.0545,-0.142221 -0.1992,-0.220112 -0.32139,-0.173202 -0.12219,0.04687 -0.26857,0.01034 -0.32521,-0.0815 -0.0566,-0.09167 -0.23765,-0.144431 -0.40228,-0.117164 -0.40293,0.06662 -0.9989,-0.496858 -0.9989,-0.944318 0,-0.198814 -0.056,-0.417481 -0.12454,-0.485909 -0.16093,-0.160806 -0.17707,-0.926617 -0.0196,-0.926617 0.0662,0 0.22398,-0.103611 0.35071,-0.230339 0.27876,-0.2787392 1.60032,-0.9313048 1.88614,-0.9313048 0.11271,0 -0.0132,0.2182682 -0.28012,0.4850696 -0.47064,0.4706852 -0.60112,1.0108592 -0.38196,1.5818942 0.14134,0.368419 1.03393,0.805413 1.61154,0.788981 0.95289,-0.02712 1.55525,-1.15507 1.03819,-1.944109 -0.14502,-0.2212605 -0.26359,-0.4399274 -0.26359,-0.485895 0,-0.1572691 0.58046,0.1209986 0.95429,0.457525 0.35165,0.316511 0.35801,0.359826 0.10901,0.739815 -0.20071,0.306282 -0.21796,0.449329 -0.0715,0.593318 0.29577,0.290751 1.04802,-0.640731 0.89867,-1.112698 -0.18653,-0.5893412 -0.61209,-1.0603656 -1.22666,-1.3576445 -1.01634,-0.4915984 -2.19183,-0.472675 -5.31043,0.08548 -1.59728,0.2858715 -3.30009,0.5841521 -3.78401,0.6628083 -0.48398,0.078701 -0.98801,0.2327702 -1.12016,0.3424662 -0.46623,0.386885 -0.26276,-0.3019219 0.26751,-0.905926 1.06136,-1.2087907 5.38561,-2.2956538 8.01378,-2.0142038 1.47728,0.1582121 2.98029,0.9202075 3.67048,1.8608696 0.75038,1.0226952 1.41734,1.3328552 3.15838,1.4687672 1.77988,0.138979 3.08646,0.363055 3.28727,0.563858 0.15013,0.150121 -1.31804,0.432854 -3.12131,0.601014 -0.54764,0.05114 -1.42741,0.152007 -1.95501,0.224251 l -0.95932,0.131462 0.451,-0.470802 c 0.322,-0.336099 0.61226,-0.470743 1.01462,-0.470743 0.76273,0 0.62239,-0.398234 -0.16396,-0.465277 -0.45254,-0.03862 -0.70207,0.05217 -1.06336,0.387061 -0.25965,0.240626 -0.94337,0.701084 -1.51938,1.023195 -0.57603,0.322113 -1.01917,0.670665 -0.98469,0.774552 0.0344,0.103909 0.6143,0.244503 1.28855,0.312475 1.48642,0.14981 2.31501,0.404762 2.31501,0.712268 0,0.126157 -0.0808,0.773771 -0.17962,1.439174 -0.15941,1.073702 -0.13204,1.458214 0.24312,3.414836 0.41793,2.179934 0.80288,3.188519 1.21693,3.188519 0.27073,0 0.2722,0.01189 -0.10214,-0.850166 -0.77112,-1.776551 -1.04632,-5.722254 -0.48176,-6.906535 0.44437,-0.932101 3.31907,-2.366308 4.74304,-2.366308 0.58708,0 0.66281,-0.487721 0.14487,-0.93319 -0.57739,-0.496638 -1.34841,-0.694996 -3.49038,-0.8979529 -0.9613,-0.091084 -1.89517,-0.2203907 -2.07522,-0.287374 -0.18013,-0.067051 -0.55633,-0.4380119 -0.83612,-0.8244992 -0.61302,-0.8467374 -1.55191,-1.4660104 -2.99967,-1.9785221 -0.89762,-0.317794 -1.41297,-0.3816831 -3.07009,-0.3806951 -1.86784,0.00111 -2.10624,0.040386 -3.84181,0.6307825 M 141.06344,10.36982 c 1.48143,0.05099 2.32841,0.598537 1.27036,0.821182 -0.25098,0.05277 -0.56838,0.166731 -0.70529,0.253139 -0.13692,0.08636 -0.33539,0.199302 -0.44105,0.250913 -0.10568,0.05159 -0.61623,-0.18785 -1.13466,-0.532039 -0.84602,-0.561736 -0.91306,-0.647378 -0.65467,-0.836334 0.15832,-0.115689 0.3673,-0.161365 0.46444,-0.101402 0.0971,0.05998 0.63753,0.124978 1.20087,0.144432 m 40.72517,-0.01533 c 0,0.263751 -0.58287,0.348169 -0.73246,0.106119 -0.12262,-0.198254 0.0664,-0.355022 0.42822,-0.355022 0.16733,0 0.30424,0.112005 0.30424,0.248924 M 138.74272,11.502 c -0.13174,0.525068 -0.27717,0.533041 -1.01417,0.05556 -0.65721,-0.425839 -0.67033,-0.701805 -0.0338,-0.712933 0.24002,-0.0044 0.49074,-0.0619 0.55716,-0.128366 0.2377,-0.237708 0.60152,0.344779 0.49083,0.785767 m 5.9922,1.770584 c -0.19078,0.357351 -0.38898,0.649369 -0.44055,0.648926 -0.22381,-0.0014 -0.98662,-0.776644 -1.07866,-1.09544 -0.0831,-0.28798 0.008,-0.393075 0.52506,-0.597035 0.58155,-0.229954 0.65124,-0.224752 0.98342,0.0731 l 0.35757,0.320624 -0.34684,0.649794 m -3.77023,-0.423066 c 0,0.541501 -0.4104,0.530889 -0.77133,-0.02005 -0.233,-0.35564 -0.24229,-0.453059 -0.0542,-0.569267 0.34594,-0.213804 0.82554,0.128514 0.82554,0.589281 m 47.04708,-0.08887 c -0.72158,0.573424 -0.63163,0.563077 -1.49356,0.172316 -0.86086,-0.390319 -0.54179,-0.515223 1.64086,-0.642279 l 0.47914,-0.02786 -0.62644,0.497848 m -49.02759,0.337778 c 0.18293,0.09786 0.32101,0.346224 0.32101,0.577225 0,0.36985 -0.0356,0.389274 -0.40576,0.220613 -0.42832,-0.19516 -0.65384,-0.566069 -0.49774,-0.818691 0.11865,-0.192066 0.18941,-0.189516 0.58249,0.02078 m 36.04629,0.297883 c -0.64184,0.241628 -1.00649,0.616399 -0.80032,0.822567 0.0458,0.04583 0.49558,-0.04657 0.99963,-0.205121 0.6902,-0.21712 0.9165,-0.366415 0.9165,-0.604712 0,-0.369024 -0.16419,-0.37091 -1.11581,-0.01327 m -31.80353,0.539569 c 0.59569,0.368124 0.63374,0.441092 0.41243,0.790365 -0.2737,0.431866 -1.34707,-0.351808 -1.34707,-0.983431 0,-0.246212 0.33633,-0.176738 0.93464,0.193066 m 32.86948,0.1769 c -0.6228,0.319843 -0.92511,0.715364 -0.7107,0.929772 0.15561,0.155603 1.59031,-0.655897 1.59031,-0.899515 0,-0.354138 -0.23345,-0.362156 -0.87961,-0.03021 m -34.83678,0.233819 c 0.2029,0.142073 0.36886,0.405366 0.36886,0.585095 0,0.314315 -0.0207,0.316305 -0.53935,0.05247 -0.68449,-0.34811 -0.64777,-0.304575 -0.52552,-0.623252 0.12985,-0.338162 0.23073,-0.340256 0.69601,-0.01474 m 6.03691,0.03212 c 0.26972,0.322216 0.27712,0.966662 0.0148,1.22963 -0.20626,0.206287 -0.96284,-0.244282 -1.22139,-0.72742 -0.13501,-0.252136 -0.10642,-0.371897 0.13116,-0.552008 0.41421,-0.313978 0.78589,-0.296778 1.07603,0.04981 m 29.80394,0.558421 c -0.46296,0.345397 -0.61478,0.810674 -0.26459,0.810674 0.30924,0 1.31699,-0.836849 1.21211,-1.006555 -0.14774,-0.239081 -0.44761,-0.177077 -0.94752,0.195881 m 1.56824,0.01474 c -0.26232,0.262321 -0.25568,0.79657 0.0108,0.79657 0.26529,0 0.66414,-0.6253 0.53364,-0.836509 -0.13176,-0.213185 -0.30298,-0.20057 -0.54349,0.03993 m 1.40052,0.08193 c -0.19832,0.198313 -0.10711,0.548634 0.14281,0.548634 0.13691,0 0.24893,-0.107582 0.24893,-0.239138 0,-0.27725 -0.23688,-0.464376 -0.39175,-0.309496 m -34.14357,0.698018 c 0.53641,0.50106 0.66414,0.849892 0.30795,0.840872 -0.33776,-0.0088 -0.76326,-0.405249 -0.94359,-0.879486 -0.21829,-0.574131 -0.006,-0.561294 0.63564,0.03862 m -1.9158,0.251473 c 0.16889,0.132347 0.25801,0.320064 0.19803,0.417039 -0.13573,0.219654 -1.00322,-0.197429 -1.1373,-0.546822 -0.19804,-0.516151 0.18237,-0.46361 0.93927,0.129842 m 5.66722,0.428696 c 0.25419,0.28089 0.26088,0.331899 0.0435,0.331899 -0.14133,0 -0.30053,0.113776 -0.35385,0.252682 -0.0808,0.210428 -0.15305,0.217621 -0.43264,0.04304 -0.32991,-0.206007 -0.44265,-0.631285 -0.22503,-0.848904 0.21258,-0.212581 0.67005,-0.108033 0.96805,0.221275 m -1.37163,1.078668 c 0.15864,0.215954 0.15987,0.415875 0.002,0.411174 -0.30004,-0.0088 -0.90979,-0.629339 -0.79735,-0.811338 0.12248,-0.198196 0.49184,-0.01177 0.79481,0.400164 m -1.93787,-0.01327 c 0.17702,0.129399 0.27654,0.280683 0.22117,0.336054 -0.0554,0.05541 -0.27931,-0.04805 -0.49759,-0.229853 -0.45083,-0.375494 -0.21551,-0.465926 0.27642,-0.106262 m 26.49062,0.893045 c 2.48517,0.740739 2.83732,1.097973 2.28924,2.322207 -0.62801,1.402721 -2.48677,2.958901 -5.11914,4.285783 -1.94582,0.980824 -2.61582,0.950508 -2.18126,-0.0988 0.21491,-0.518814 1.70764,-1.631734 2.71042,-2.02077 0.34888,-0.135294 0.61025,-0.315706 0.58083,-0.40077 -0.067,-0.193514 -0.67084,-0.122466 -1.59441,0.18745 -0.87533,0.293842 -2.09479,0.310237 -2.31943,0.03126 -0.1177,-0.146196 -0.0468,-0.395456 0.24013,-0.844186 0.48446,-0.757516 1.53687,-1.278482 2.8734,-1.422372 0.50199,-0.05398 0.91271,-0.170152 0.91271,-0.258105 0,-0.08786 -0.5369,-0.281741 -1.19312,-0.430707 -1.91388,-0.434522 -2.54923,-1.09566 -1.66953,-1.737394 0.52954,-0.386326 2.42869,-0.222205 4.47016,0.386281 m -5.50509,-0.0088 c 0.001,0.159759 0.0473,0.458469 0.10225,0.663812 0.0971,0.362549 0.0645,0.373391 -1.12243,0.372452 -1.39061,-0.0011 -2.51826,-0.256346 -2.42499,-0.549023 0.0984,-0.309058 1.61182,-0.762382 2.57158,-0.7704 0.72105,-0.006 0.87162,0.04274 0.8735,0.283159 m -4.23698,0.866386 c 0.0548,0.08857 -0.0715,0.193715 -0.28064,0.233542 -0.20911,0.03995 -0.77792,0.154114 -1.2641,0.253801 -0.48613,0.09975 -1.15823,0.179058 -1.49355,0.176288 -0.906,-0.0071 -0.3116,-0.292013 1.17443,-0.562173 1.56347,-0.284225 1.74475,-0.294128 1.86386,-0.101412 m 5.54208,0.925005 c 0.0365,0.03638 -0.12689,0.139718 -0.36293,0.229454 -0.2361,0.08976 -0.73809,0.442262 -1.11564,0.783339 -0.59051,0.533497 -0.81786,0.628905 -1.62672,0.682784 -1.17421,0.07823 -2.26786,-0.143391 -2.26786,-0.459466 0,-0.42211 1.28361,-1.126912 2.32954,-1.279148 0.92236,-0.134259 2.89424,-0.106285 3.04361,0.04304 m -5.48644,0.034 c -0.0318,0.06848 -0.23084,0.402281 -0.44216,0.741812 -0.47058,0.756126 -0.44625,0.751644 -4.75498,0.874229 -2.48214,0.07062 -3.24281,0.04779 -3.01682,-0.09106 0.59292,-0.364046 3.21141,-0.975806 4.92524,-1.150714 0.95837,-0.09773 2.0412,-0.241413 2.40631,-0.319118 0.91151,-0.19418 0.94823,-0.196427 0.88241,-0.05516 m 23.84635,1.531619 c -0.19322,0.31265 0.61585,1.349232 0.8614,1.103681 0.14104,-0.141048 -0.39402,-1.266201 -0.60207,-1.266201 -0.0874,0 -0.20407,0.07311 -0.25933,0.16252 m -23.67083,0.605007 c 0.57519,0.115083 0.67519,0.322055 0.22459,0.465041 -0.1617,0.05124 -0.53936,0.317466 -0.83934,0.591407 l -0.54531,0.498127 -5.25937,-0.01831 c -2.89263,-0.0107 -5.4647,0.03579 -5.71573,0.10165 -0.29065,0.07633 -0.45637,0.05457 -0.45637,-0.0598 0,-0.257486 0.74982,-0.606815 1.97,-0.917812 0.99217,-0.25291 4.22815,-0.543437 7.24027,-0.650138 0.7302,-0.0258 1.673,-0.06206 2.09513,-0.08036 0.42212,-0.01843 1.00092,0.01331 1.28613,0.07026 m 3.28482,0.549071 c 0.1437,0.380858 0.3208,0.512573 0.813,0.604889 0.62481,0.117224 0.62674,0.120113 0.27708,0.403267 -0.46599,0.377314 -3.22526,0.749813 -4.02225,0.543044 -0.3219,-0.08358 -0.58085,-0.256227 -0.58085,-0.387384 0,-0.450561 1.74935,-1.331863 3.24114,-1.632911 0.0486,-0.0107 0.17075,0.201313 0.27188,0.469095 m 20.04376,-0.359837 c -0.0958,0.06705 -0.30811,0.84509 -0.47185,1.728936 -0.56162,3.031756 -2.36392,6.27078 -4.67351,8.398882 -2.47271,2.278507 -6.48977,3.962849 -10.5615,4.428401 l -0.94542,0.108069 0.0326,-0.452439 c 0.0278,-0.384412 -0.0514,-0.474957 -0.52684,-0.601691 -0.30778,-0.08204 -0.66246,-0.109614 -0.78827,-0.06146 -0.28143,0.108068 -0.30041,0.789818 -0.0294,1.060703 0.15487,0.154888 -0.0387,0.203228 -0.87124,0.217518 -1.57298,0.02699 -1.84847,-0.01807 -2.36691,-0.38723 -0.2585,-0.184085 -0.79953,-0.433856 -1.2023,-0.555039 -0.69545,-0.209325 -0.75669,-0.199921 -1.2151,0.185798 -0.26552,0.223426 -0.67735,0.406192 -0.91516,0.406192 -0.48624,0 -0.55505,-0.189519 -0.18144,-0.499555 0.35563,-0.295126 0.0707,-0.575356 -0.84591,-0.831976 -0.91057,-0.254966 -1.22085,-0.04506 -1.37989,0.933245 -0.11853,0.729292 -0.51444,0.978565 -0.51444,0.323945 0,-0.615196 -0.39462,-0.690356 -1.24801,-0.237644 -1.05689,0.560698 -1.12514,0.877331 -0.16578,0.769179 l 0.75,-0.08465 0.002,0.684924 c 0.001,0.37666 0.0794,0.796893 0.17325,0.933791 0.14605,0.212929 0.20859,0.194941 0.43258,-0.124534 0.14399,-0.205319 0.3471,-0.373378 0.45127,-0.373378 0.64677,0 3.73595,2.72657 5.32607,4.700938 0.76306,0.947369 0.66409,1.095682 -0.7434,1.114429 -1.53516,0.02045 -4.70757,0.411554 -5.10299,0.629012 -0.45343,0.249367 -0.53226,0.804811 -0.0829,0.584797 0.15976,-0.07823 0.96252,-0.147231 1.78398,-0.153556 0.86168,-0.006 1.91202,-0.129397 2.48263,-0.290406 1.08231,-0.305352 2.41292,-0.371632 2.41292,-0.120113 0,0.354975 -4.11077,1.250936 -5.55936,1.211715 -0.3651,-0.0107 -1.34171,-0.04196 -2.17024,-0.07145 -1.41198,-0.05029 -1.54982,-0.02473 -2.19885,0.404646 -0.38081,0.25203 -0.6924,0.569223 -0.6924,0.704861 0,0.314697 0.036,0.310975 0.69583,-0.07193 0.72875,-0.422907 1.09782,-0.454531 1.79341,-0.153675 1.329,0.574799 1.22258,0.586688 7.6878,-0.859676 1.73816,-0.388835 2.5735,-0.407964 3.64317,-0.08346 0.81964,0.248701 1.66837,0.333599 5.34709,0.534792 3.72716,0.203845 3.83956,0.1955 4.31994,-0.322661 0.48773,-0.526066 1.19588,-0.601286 1.81881,-0.193109 0.39019,0.25568 0.74822,0.206235 0.74822,-0.103313 0,-0.239072 -0.76083,-0.677078 -1.44832,-0.833736 -0.49545,-0.112943 -0.75699,-0.0749 -1.25347,0.182552 -0.56114,0.290859 -0.96455,0.324492 -3.81687,0.317965 -2.34389,-0.006 -3.36542,-0.07061 -3.85326,-0.246442 -0.36511,-0.131454 -0.78534,-0.240237 -0.93391,-0.241627 -0.14853,-0.0012 -0.37256,-0.128506 -0.49787,-0.282514 -0.20068,-0.246691 -0.19128,-0.266284 0.0792,-0.164777 0.40088,0.150416 4.36355,0.42771 6.56772,0.459524 1.45571,0.02104 1.7629,-0.01974 1.93647,-0.257118 0.15518,-0.21225 0.4047,-0.269994 1.00683,-0.232925 0.64234,0.03947 0.81112,-0.006 0.85422,-0.229631 0.0682,-0.353763 -0.5736,-0.53005 -1.42089,-0.390369 -2.77099,0.456744 -3.68428,0.49166 -5.86421,0.224259 -2.02834,-0.248833 -2.25373,-0.312271 -3.03794,-0.855041 -1.22677,-0.849168 -4.91995,-4.445711 -4.91607,-4.787454 0.001,-0.189411 0.13308,-0.290644 0.37665,-0.291025 1.87718,-0.0024 6.01288,-0.413111 7.7364,-0.767301 7.00761,-1.440016 10.83494,-4.430125 13.46156,-10.516759 0.71159,-1.64889 0.9936,-2.71794 0.99596,-3.775375 0.001,-0.855266 -0.0731,-0.98785 -0.42111,-0.744238 m -10.6692,1.36633 c -0.38286,0.517887 -0.46953,0.894701 -0.18383,0.799495 0.27444,-0.09154 0.85228,-1.092411 0.68893,-1.193346 -0.0808,-0.04994 -0.30808,0.12734 -0.5051,0.393851 m 1.13526,0.239344 c 0,0.385304 0.26304,0.714813 0.43401,0.543829 0.12631,-0.126295 -0.12173,-0.948914 -0.28603,-0.948914 -0.0813,0 -0.14798,0.182278 -0.14798,0.405085 m -14.4792,0.635051 c 0.29665,0.103433 0.53933,0.233484 0.53933,0.288862 0,0.287648 -1.47647,0.656177 -3.31901,0.828492 -2.04611,0.191326 -10.15983,0.217767 -12.98621,0.04233 -1.16171,-0.07205 -1.41694,-0.133084 -1.27467,-0.304579 0.36117,-0.435176 2.89401,-0.827268 7.29094,-1.128685 1.79737,-0.123215 9.20856,0.08476 9.74962,0.273525 m 16.04268,0.03139 c -0.17121,0.682118 0.021,0.878545 0.3116,0.318572 0.25446,-0.490162 0.2304,-0.726309 -0.0742,-0.726309 -0.0744,0 -0.18117,0.183479 -0.23748,0.407737 m -11.52053,0.408462 c 0,0.266356 0.0432,0.596971 0.096,0.734774 0.0746,0.194334 -0.26061,0.36476 -1.49556,0.760335 -0.87544,0.280396 -1.75879,0.509576 -1.96308,0.509244 -0.44043,-0.0011 -1.45008,-0.582443 -1.45008,-0.835448 0,-0.268246 1.93747,-1.118555 3.15445,-1.384471 1.60304,-0.350279 1.65813,-0.343134 1.65813,0.215566 m 12.73893,-0.11104 c -0.4844,0.743071 -0.79551,1.45207 -0.63724,1.45207 0.21142,0 0.93812,-0.974071 1.08332,-1.45207 0.0623,-0.205331 0.0423,-0.373379 -0.0447,-0.373379 -0.0869,0 -0.26756,0.168048 -0.40144,0.373379 m 0.78098,0.160926 c -0.14474,0.37698 -0.0387,0.834128 0.21253,0.917825 0.24516,0.08168 0.27874,-0.584595 0.0479,-0.949627 -0.13308,-0.210491 -0.1691,-0.206056 -0.26037,0.03186 m -18.80079,1.616706 c 0.26065,0.458123 0.26065,0.495025 0,0.576832 -0.64755,0.203346 -7.50176,0.4255 -12.89207,0.417915 -3.52473,-0.0048 -6.28317,0.06527 -7.01357,0.178628 -0.6622,0.102714 -1.29636,0.155659 -1.40925,0.11758 -0.37622,-0.126746 1.40168,-0.786502 3.09819,-1.149716 1.56696,-0.335501 2.14796,-0.359445 9.00455,-0.371226 4.03116,-0.0071 7.38547,-0.06871 7.45395,-0.137209 0.0684,-0.06836 0.42942,-0.12394 0.80211,-0.123357 0.57623,0.0011 0.71927,0.0743 0.95609,0.490447 m 4.94898,1.072866 c 0,0.153948 0.14192,0.261102 0.34574,0.261102 0.40441,0 0.34726,-0.387777 -0.0691,-0.468537 -0.16374,-0.03174 -0.27665,0.0529 -0.27665,0.207435 m -2.03288,0.05861 c -0.66232,0.138682 -0.0313,1.199993 0.83888,1.41096 0.30379,0.07371 0.41741,0.0012 0.55221,-0.350482 0.10558,-0.27538 0.11188,-0.536076 0.0165,-0.688597 -0.16578,-0.265465 -0.9395,-0.469904 -1.40764,-0.371881 m -6.56176,1.180841 c -0.0558,0.14503 0.13367,0.432359 0.47572,0.722385 0.48636,0.412279 0.67272,0.470474 1.29398,0.404146 1.10386,-0.117817 1.27694,-0.714407 0.34679,-1.195404 -0.59255,-0.306397 -1.98992,-0.260935 -2.11649,0.06884 m 5.52933,0.574072 c -0.38911,0.284559 -0.23877,0.721566 0.32144,0.934589 0.62735,0.238512 0.96546,0.04613 0.83462,-0.475064 -0.17172,-0.684104 -0.61043,-0.858476 -1.15606,-0.459525 m -2.20816,0.531263 c -0.20289,0.142082 -0.36884,0.391877 -0.36884,0.55511 0,0.720102 1.27317,1.172993 1.44548,0.514166 0.0478,-0.182553 0.19007,-0.331888 0.31634,-0.331888 0.43863,0 0.22632,-0.461641 -0.33481,-0.727866 -0.68415,-0.324659 -0.60921,-0.323992 -1.05817,-0.0084 m -5.87554,0.175015 c -0.33024,0.330247 -0.20201,0.939963 0.29606,1.407928 l 0.39806,0.37395 0.41487,-0.389762 c 0.22819,-0.214354 0.41489,-0.445139 0.41489,-0.512846 0,-0.06765 -0.28626,-0.349815 -0.63621,-0.626907 -0.56838,-0.450228 -0.66297,-0.477108 -0.88767,-0.252363 m 15.40842,1.004899 c -0.20213,0.202133 -0.11436,0.553173 0.13824,0.553173 0.13825,0 0.24893,-0.147528 0.24893,-0.331912 0,-0.330626 -0.17686,-0.431633 -0.38723,-0.221261 m -12.79663,0.206281 c -0.14251,0.23056 0.0761,0.668399 0.42761,0.856528 0.23753,0.127042 0.33777,0.108781 0.40819,-0.07454 0.20339,-0.530097 -0.55367,-1.238322 -0.8358,-0.781888 m 1.92293,0.162732 c -0.32416,0.205391 -0.0782,0.847955 0.32455,0.847955 0.40823,0 0.58508,-0.422015 0.31375,-0.748885 -0.23488,-0.28306 -0.32565,-0.29716 -0.6383,-0.09904 m 7.05231,0.631223 c -0.18687,0.186867 -0.11378,0.382687 0.14281,0.382687 0.13691,0 0.24893,-0.07026 0.24893,-0.156171 0,-0.209254 -0.25918,-0.359112 -0.39175,-0.226516 m 2.33784,0.382687 c -0.23204,0.182529 -0.49552,0.331899 -0.58541,0.331899 -0.14679,0 -0.43829,0.508411 -0.32743,0.57097 1.11094,0.627026 2.51094,0.515164 1.95386,-0.1561 -0.107,-0.128814 -0.1443,-0.315587 -0.083,-0.41487 0.11306,-0.182766 -0.18619,-0.66381 -0.41282,-0.66381 -0.0677,0 -0.31309,0.149348 -0.54521,0.331911 m -12.94035,0.01331 c -0.38323,0.223272 -0.36635,0.465279 0.0644,0.923853 0.27697,0.294795 0.42258,0.341362 0.66382,0.212251 0.34871,-0.186583 0.41061,-0.815416 0.10974,-1.11619 -0.23986,-0.239844 -0.45178,-0.244885 -0.83807,-0.01985 m 9.00284,0.368422 c 0,0.540153 0.78927,0.81381 1.13739,0.394338 0.13308,-0.160416 0.12969,-0.272372 -0.0133,-0.414871 -0.26658,-0.26657 -1.12454,-0.250852 -1.12454,0.02045 m -7.24285,0.154994 c -0.14251,0.230523 0.4916,1.100103 0.87179,1.195511 0.85641,0.214914 1.61194,-0.548858 1.01916,-1.030269 -0.25446,-0.206604 -1.78283,-0.340209 -1.89095,-0.165242 m 4.9399,0.173148 c -0.30419,0.304187 -0.21612,0.573919 0.30966,0.948355 0.4401,0.313364 0.54737,0.328534 0.95218,0.134558 0.63957,-0.306529 0.68952,-0.758409 0.0978,-0.885464 -0.25706,-0.05529 -0.62624,-0.164136 -0.82042,-0.242067 -0.2232,-0.0894 -0.42156,-0.07311 -0.53934,0.0447 m 3.81411,0.832524 c -0.31133,0.311318 -0.20457,0.573145 0.27283,0.669111 0.25103,0.05041 0.66824,0.143545 0.92715,0.206889 0.42469,0.103788 0.46535,0.07704 0.41488,-0.273763 -0.0424,-0.295115 -0.22169,-0.436734 -0.74361,-0.587294 -0.50239,-0.144876 -0.73723,-0.148977 -0.87125,-0.01486 m -5.59099,0.305899 c -0.12528,0.202751 0.37432,0.648485 1.16137,1.035987 0.58261,0.286817 1.15497,0.1235 1.22622,-0.350053 0.0385,-0.25518 -0.1089,-0.397501 -0.62569,-0.604223 -0.78594,-0.314481 -1.5949,-0.351991 -1.7619,-0.08167 m 9.5044,0.08441 c -0.21646,0.216399 -0.11319,0.390641 0.23161,0.390641 0.1931,0 0.31674,-0.08691 0.28006,-0.197033 -0.081,-0.242567 -0.35797,-0.347402 -0.51167,-0.193608 m -5.36996,0.487736 c -0.0758,0.197913 -0.23582,0.23774 -0.64565,0.160855 -0.63072,-0.118412 -0.85334,0.09951 -0.48166,0.471082 0.2554,0.255453 2.20351,0.930486 2.68519,0.930486 0.36439,0 0.12867,-1.160986 -0.3117,-1.535055 -0.42616,-0.362049 -1.11198,-0.377088 -1.24618,-0.02746 m 4.09418,0.306648 c 0,0.299751 0.6409,0.515319 0.86521,0.291012 0.24781,-0.247821 0.002,-0.528788 -0.46013,-0.528788 -0.24096,0 -0.40508,0.0963 -0.40508,0.237776 m -7.47028,2.577426 c 0.11199,0.270553 0.43849,0.630604 0.72543,0.800221 0.28692,0.169545 1.15646,0.909242 1.93227,1.643789 0.77583,0.7345 1.82049,1.714099 2.32148,2.176881 0.75387,0.696444 0.86101,0.860569 0.62171,0.952398 -0.6289,0.241354 -1.83552,-0.587626 -3.89073,-2.672916 -2.24905,-2.28199 -2.59319,-2.721912 -2.44046,-3.119923 0.16286,-0.424512 0.50632,-0.321235 0.7303,0.21955"
       stroke="none"
       fill="#000000"
       fill-rule="evenodd"
       id="path9"
       style="stroke-width:0.055317;fill:#808080" />
    <g
       aria-label="PISCO"
       id="text767"
       style="font-weight:bold;font-size:37.7561px;line-height:1.25;font-family:Gadugi;-inkscape-font-specification:'Gadugi, Bold';stroke-width:0.943904;fill:#87aade"
       transform="matrix(1.1888771,0,0,1.1888771,-25.877251,-100.12068)">
      <path
         d="m 30.770211,110.97917 v 9.10718 H 24.815514 V 93.649705 h 9.328411 q 9.992093,0 9.992093,8.425065 0,3.98209 -2.875953,6.45246 -2.857517,2.45194 -7.650772,2.45194 z m 0,-12.757437 v 8.240707 h 2.341321 q 4.756383,0 4.756383,-4.16644 0,-4.074267 -4.756383,-4.074267 z"
         id="path4337"
         style="fill:#87aade" />
      <path
         d="m 56.174461,93.649705 v 4.608899 H 53.96219 v 17.218846 h 2.212271 v 4.6089 h -10.37924 v -4.6089 h 2.212271 V 98.258604 h -2.212271 v -4.608899 z"
         id="path4339"
         style="fill:#87aade" />
      <path
         d="M 58.755446,119.07239 V 113.173 q 1.603896,1.3458 3.484327,2.02792 1.880431,0.66368 3.797733,0.66368 1.124571,0 1.954173,-0.20279 0.848037,-0.20279 1.401105,-0.55307 0.571504,-0.36871 0.848038,-0.84804 0.276534,-0.49776 0.276534,-1.06926 0,-0.7743 -0.442455,-1.38267 -0.442454,-0.60838 -1.216749,-1.12457 -0.75586,-0.5162 -1.806688,-0.99553 -1.050829,-0.47932 -2.267579,-0.97708 -3.09718,-1.29049 -4.627334,-3.15249 -1.511719,-1.86199 -1.511719,-4.49829 0,-2.064782 0.829602,-3.539629 0.829602,-1.493284 2.249142,-2.451935 1.437977,-0.958651 3.318408,-1.401105 1.88043,-0.46089 3.982088,-0.46089 2.064787,0 3.650248,0.258099 1.603897,0.239662 2.949695,0.755859 v 5.512243 q -0.663681,-0.46089 -1.456412,-0.811166 -0.774295,-0.350277 -1.603896,-0.571504 -0.829602,-0.239662 -1.659204,-0.350276 -0.811166,-0.110614 -1.54859,-0.110614 -1.013958,0 -1.84356,0.202792 -0.829601,0.184356 -1.401105,0.534632 -0.571503,0.350277 -0.884908,0.848038 -0.313406,0.479325 -0.313406,1.087696 0,0.66369 0.350277,1.19832 0.350276,0.51619 0.995522,0.99552 0.645246,0.46089 1.567026,0.92178 0.921779,0.44245 2.083222,0.92178 1.585461,0.66368 2.839082,1.41954 1.272056,0.73742 2.1754,1.67764 0.903344,0.94021 1.38267,2.15696 0.479325,1.19832 0.479325,2.80221 0,2.21228 -0.848037,3.72399 -0.829602,1.49329 -2.267579,2.4335 -1.437976,0.92178 -3.355278,1.32737 -1.898866,0.40558 -4.01896,0.40558 -2.1754,0 -4.148009,-0.36871 -1.954173,-0.36871 -3.392149,-1.10614 z"
         id="path4341"
         style="fill:#87aade" />
      <path
         d="m 100.08805,119.14613 q -2.894389,1.40111 -7.558595,1.40111 -6.083746,0 -9.568074,-3.57651 -3.484327,-3.5765 -3.484327,-9.5312 0,-6.34184 3.908346,-10.287061 3.926782,-3.945218 10.176449,-3.945218 3.871475,0 6.526201,0.977087 v 5.73347 q -2.654726,-1.585461 -6.046876,-1.585461 -3.72399,0 -6.010004,2.341323 -2.286014,2.34132 -2.286014,6.34184 0,3.83461 2.156965,6.12062 2.156965,2.26758 5.807213,2.26758 3.484327,0 6.378716,-1.69608 z"
         id="path4343"
         style="fill:#87aade" />
      <path
         d="m 115.86892,120.54724 q -5.67816,0 -9.25467,-3.68712 -3.5765,-3.70555 -3.5765,-9.64182 0,-6.2681 3.63181,-10.139574 3.63181,-3.871475 9.62338,-3.871475 5.65973,0 9.14406,3.705555 3.50276,3.705554 3.50276,9.770864 0,6.23123 -3.63181,10.0474 -3.61338,3.81617 -9.43903,3.81617 z m 0.2581,-22.214893 q -3.13405,0 -4.97761,2.359753 -1.84356,2.34132 -1.84356,6.2128 0,3.92678 1.84356,6.21279 1.84356,2.28602 4.83013,2.28602 3.07874,0 4.88543,-2.21227 1.80669,-2.23071 1.80669,-6.17593 0,-4.11114 -1.75138,-6.39715 -1.75138,-2.286013 -4.79326,-2.286013 z"
         id="path4345"
         style="fill:#87aade" />
    </g>
    <g
       aria-label="CRM"
       id="text2291"
       style="font-weight:bold;font-size:37.7561px;line-height:1.25;font-family:Gadugi;-inkscape-font-specification:'Gadugi, Bold';stroke-width:0.943904;fill:#87aade"
       transform="matrix(1.1888771,0,0,1.1888771,-25.877251,-100.12068)">
      <path
         d="m 209.95164,119.14613 q -2.89439,1.40111 -7.55859,1.40111 -6.08375,0 -9.56808,-3.57651 -3.48433,-3.5765 -3.48433,-9.5312 0,-6.34184 3.90835,-10.287061 3.92678,-3.945218 10.17645,-3.945218 3.87147,0 6.5262,0.977087 v 5.73347 q -2.65473,-1.585461 -6.04688,-1.585461 -3.72399,0 -6.01,2.341323 -2.28601,2.34132 -2.28601,6.34184 0,3.83461 2.15696,6.12062 2.15697,2.26758 5.80721,2.26758 3.48433,0 6.37872,-1.69608 z"
         id="path4371"
         style="fill:#87aade" />
      <path
         d="m 236.73856,120.08635 h -6.83961 l -4.11113,-6.80274 q -0.46089,-0.77429 -0.88491,-1.38266 -0.42402,-0.60838 -0.86647,-1.0324 -0.42402,-0.44245 -0.90335,-0.66368 -0.46089,-0.23966 -1.01396,-0.23966 h -1.60389 v 10.12114 h -5.9547 V 93.649705 h 9.43902 q 9.62339,0 9.62339,7.189885 0,1.38267 -0.42402,2.56255 -0.42402,1.16144 -1.19832,2.10165 -0.77429,0.94022 -1.88043,1.62234 -1.0877,0.68211 -2.4335,1.06926 v 0.0737 q 0.58994,0.18436 1.14301,0.60838 0.55307,0.40558 1.06926,0.95865 0.5162,0.55307 0.97709,1.19831 0.47933,0.62681 0.86647,1.23519 z M 220.51524,98.11112 v 7.3558 h 2.58098 q 1.9173,0 3.07874,-1.10613 1.17988,-1.12457 1.17988,-2.78378 0,-3.46589 -4.14801,-3.46589 z"
         id="path4373"
         style="fill:#87aade" />
      <path
         d="m 269.33269,120.08635 h -5.88095 v -15.81774 q 0,-2.56255 0.22123,-5.659729 h -0.14749 q -0.46089,2.433499 -0.8296,3.502759 l -6.19436,17.97471 h -4.867 L 245.32955,102.296 q -0.2581,-0.71899 -0.8296,-3.687119 h -0.16592 q 0.23966,3.908349 0.23966,6.858039 v 14.61943 h -5.36476 V 93.649705 h 8.72004 l 5.40163,15.670255 q 0.64524,1.88043 0.94021,3.7793 h 0.11062 q 0.49776,-2.19384 1.05083,-3.81617 l 5.40162,-15.633385 h 8.49881 z"
         id="path4375"
         style="fill:#87aade" />
    </g>
  </g>
</svg>
